<?xml version="1.0" encoding="utf-8"?>
<!-- Generator: Adobe Illustrator 20.1.0, SVG Export Plug-In . SVG Version: 6.00 Build 0)  -->
<svg version="1.1" id="レイヤー_1" xmlns="http://www.w3.org/2000/svg" xmlns:xlink="http://www.w3.org/1999/xlink" x="0px"
	 y="0px" viewBox="0 0 428.6 84.9" style="enable-background:new 0 0 428.6 84.9;" xml:space="preserve">
<style type="text/css">
	.st0{fill:#040000;}
</style>
<g>
	<g>
		<path class="st0" d="M19.7,16.3H8.9v9l-8.9,0v10.8h8.9V45h10.8v-8.9h8.9V25.3h-8.9V16.3z M66.5,0C50.2,0,36.9,13.3,36.9,29.6
			c0,16.4,13.3,29.6,29.6,29.6c0.5,0,1,0,1.5,0L51.8,84.9h14.8l23.9-38.1c3.4-4.8,5.5-10.7,5.5-17.2C96.1,13.3,82.9,0,66.5,0z
			 M66.5,46.7c-9.4,0-17-7.7-17-17.1c0-9.4,7.6-17,17-17.1c9.4,0,17,7.7,17,17.1C83.6,39,75.9,46.6,66.5,46.7z"/>
		<g>
			<path class="st0" d="M160.4,51.1h-3v-2.9c-0.9,1.7-2.8,3.4-6.2,3.4c-5.2,0-8.5-4-8.5-8.8c0-5.2,3.7-8.8,8.4-8.8
				c3.4,0,5.5,1.9,6.1,3.2v-2.9v-5.8h3.2V51.1z M145.9,42.8c0,3.1,2.2,5.8,5.8,5.8c1.6,0,3.1-0.7,4.1-1.7c1.1-1.1,1.7-2.5,1.6-4.2
				c0-1.6-0.6-3.1-1.7-4.1c-1-1-2.5-1.6-4.1-1.6C148.2,37,145.9,39.7,145.9,42.8L145.9,42.8z"/>
			<path class="st0" d="M166.1,43.8c0.2,3.4,3.1,5.1,5.6,5.1c2.2,0,3.9-1.1,4.8-2.8h3.3c-0.8,1.8-2,3.2-3.4,4.1
				c-1.4,0.9-3,1.4-4.7,1.4c-5.4,0-8.8-4.4-8.8-8.8c0-4.8,3.7-8.8,8.8-8.8c2.4,0,4.5,0.9,6.1,2.4c2,2,2.8,4.6,2.5,7.4H166.1z
				 M177.1,41.3c-0.2-2.2-2.3-4.7-5.5-4.6c-3.2,0-5.3,2.3-5.5,4.6H177.1z"/>
			<path class="st0" d="M190.7,38.8c0-1.3-0.8-2.3-2.4-2.2c-1.6,0-2.4,1-2.4,2.1c0.1,1.3,1.3,1.9,3,2.4c2.5,0.7,5.3,1.4,5.4,5
				c0.1,3.2-2.6,5.4-5.9,5.4c-2.6,0-5.9-1.5-6-5.3h3.1c0.1,2,1.7,2.7,2.9,2.7c1.5,0,2.7-1.1,2.7-2.5c0-1.6-1.3-2.2-4.2-3.2
				c-2.3-0.7-4.1-1.8-4.2-4.3c0-3.1,2.6-5,5.6-5c2.3,0,5.3,1.1,5.5,4.8H190.7z"/>
			<path class="st0" d="M197,28.5h3.2v3.4H197V28.5z M197,34.5h3.2v16.6H197V34.5z"/>
			<path class="st0" d="M220.4,49.2c0,2.9-0.7,4.8-2,6.2c-1.5,1.8-4.1,3-7,3c-4.7,0-7.4-2.7-8.2-5.5h3.7c0.4,0.7,1,1.4,1.8,1.9
				c1,0.7,2.1,0.9,2.9,0.9c2.8,0,5.6-2,5.6-5.8v-1.7c-1,1.9-3,3.4-6,3.4c-5,0-8.6-3.8-8.6-8.7c0-5.2,3.8-8.8,8.6-8.8
				c2.8,0,5.1,1.5,6,3.3v-2.8h3.2V49.2z M205.9,42.8c0,3.1,2.2,5.8,5.7,5.8c1.7,0,3.1-0.6,4.1-1.7c1-1,1.6-2.4,1.6-4.1
				c0-1.3-0.4-2.8-1.3-3.9c-0.9-1.2-2.3-2-4.4-2C208.5,37,205.9,39.4,205.9,42.8L205.9,42.8z"/>
			<path class="st0" d="M224,34.5h3v2.6c0.8-1.7,2.7-3.1,5.6-3.1c5.3,0.1,6.7,3.9,6.7,7.3v9.7h-3.2v-9c0-3-1.2-5.1-4.4-5.1
				c-3.1,0-4.5,2-4.5,4.8v9.2H224V34.5z"/>
			<path class="st0" d="M242.7,28.5h3.2v3.4h-3.2V28.5z M242.7,34.5h3.2v16.6h-3.2V34.5z"/>
			<path class="st0" d="M250.1,34.5h3v2.6c0.8-1.7,2.7-3.1,5.6-3.1c5.3,0.1,6.7,3.9,6.7,7.3v9.7h-3.2v-9c0-3-1.2-5.1-4.4-5.1
				c-3.1,0-4.5,2-4.5,4.8v9.2h-3.2V34.5z"/>
			<path class="st0" d="M285.6,49.2c0,2.9-0.7,4.8-2,6.2c-1.5,1.8-4.1,3-7,3c-4.7,0-7.4-2.7-8.2-5.5h3.7c0.4,0.7,1,1.4,1.8,1.9
				c1,0.7,2.1,0.9,2.9,0.9c2.8,0,5.6-2,5.6-5.8v-1.7c-1,1.9-3,3.4-6,3.4c-5,0-8.6-3.8-8.6-8.7c0-5.2,3.8-8.8,8.6-8.8
				c2.8,0,5.1,1.5,6,3.3v-2.8h3.2V49.2z M271.1,42.8c0,3.1,2.2,5.8,5.7,5.8c1.7,0,3.1-0.6,4.1-1.7c1-1,1.6-2.4,1.6-4.1
				c0-1.3-0.4-2.8-1.3-3.9c-0.9-1.2-2.3-2-4.4-2C273.7,37,271.1,39.4,271.1,42.8L271.1,42.8z"/>
			<path class="st0" d="M298.7,34.5h3v2.9c1.2-2,3.4-3.4,6.3-3.4c5.7,0,8.4,4.8,8.4,8.9c0,4.7-3.4,8.7-8.4,8.7
				c-3.4,0-5.5-1.9-6.2-3.2v2.7v6h-3.2V34.5z M313.3,42.8c0-2.7-1.9-5.8-5.8-5.8c-1.6,0-3.1,0.6-4.1,1.7c-1,1-1.6,2.5-1.6,4.1
				c0,1.7,0.6,3.1,1.6,4.1c1,1,2.5,1.7,4.1,1.7C310.9,48.6,313.3,46,313.3,42.8L313.3,42.8z"/>
			<path class="st0" d="M319.5,28.5h3.2v22.6h-3.2V28.5z"/>
			<path class="st0" d="M341.5,51.1h-3v-2.6c-0.8,1.7-2.6,3.1-5.6,3.1c-5.3,0-6.7-3.9-6.7-7.4v-9.7h3.2v9c0,3,1.2,5.1,4.4,5.1
				c3.1,0,4.5-2,4.5-4.8v-9.3h3.2V51.1z"/>
			<path class="st0" d="M352.3,38.8c0-1.3-0.8-2.3-2.4-2.2c-1.6,0-2.4,1-2.4,2.1c0.1,1.3,1.2,1.9,3,2.4c2.5,0.7,5.3,1.4,5.4,5
				c0.1,3.2-2.6,5.4-5.9,5.4c-2.6,0-5.9-1.5-6-5.3h3.1c0.1,2,1.7,2.7,2.9,2.7c1.5,0,2.7-1.1,2.7-2.5c0-1.6-1.3-2.2-4.2-3.2
				c-2.3-0.7-4.1-1.8-4.2-4.3c0-3.1,2.6-5,5.6-5c2.3,0,5.3,1.1,5.5,4.8H352.3z"/>
			<path class="st0" d="M367.1,34.5h3v2.6c0.8-1.7,2.7-3.1,5.6-3.1c5.3,0.1,6.7,3.9,6.7,7.3v9.7h-3.2v-9c0-3-1.2-5.1-4.4-5.1
				c-3.1,0-4.5,2-4.5,4.8v9.2h-3.2V34.5z"/>
			<path class="st0" d="M386.2,28.5h3.2v3.4h-3.2V28.5z M386.2,34.5h3.2v16.6h-3.2V34.5z"/>
			<path class="st0" d="M393.5,34.5h3v2.6c0.8-1.7,2.7-3.1,5.6-3.1c5.3,0.1,6.7,3.9,6.7,7.3v9.7h-3.2v-9c0-3-1.2-5.1-4.4-5.1
				c-3.1,0-4.5,2-4.5,4.8v9.2h-3.2V34.5z"/>
			<path class="st0" d="M414.3,43.8c0.2,3.4,3.1,5.1,5.6,5.1c2.2,0,3.9-1.1,4.8-2.8h3.3c-0.8,1.8-1.9,3.2-3.4,4.1
				c-1.4,0.9-3,1.4-4.7,1.4c-5.4,0-8.8-4.4-8.8-8.8c0-4.8,3.7-8.8,8.8-8.8c2.4,0,4.5,0.9,6.1,2.4c1.9,2,2.8,4.6,2.5,7.4H414.3z
				 M425.4,41.3c-0.2-2.2-2.3-4.7-5.5-4.6c-3.2,0-5.3,2.3-5.5,4.6H425.4z"/>
		</g>
	</g>
</g>
<g>
</g>
<g>
</g>
<g>
</g>
<g>
</g>
<g>
</g>
<g>
</g>
</svg>
