<?xml version="1.0" standalone="no"?>
<!DOCTYPE svg PUBLIC "-//W3C//DTD SVG 20010904//EN"
 "http://www.w3.org/TR/2001/REC-SVG-20010904/DTD/svg10.dtd">
<svg version="1.0" xmlns="http://www.w3.org/2000/svg"
 width="600.000000pt" height="600.000000pt" viewBox="0 0 600.000000 600.000000"
 preserveAspectRatio="xMidYMid meet">
<metadata>
Created by potrace 1.14, written by Peter Selinger 2001-2017
</metadata>
<g transform="translate(0.000000,600.000000) scale(0.100000,-0.100000)"
fill="#000000" stroke="none">
<path d="M3898 5076 c-1 -2 -50 -6 -106 -10 -57 -3 -107 -8 -110 -10 -4 -2
-29 -7 -56 -10 -27 -4 -52 -9 -56 -11 -4 -2 -17 -6 -31 -8 -13 -3 -58 -16 -99
-30 -523 -176 -901 -637 -975 -1188 -20 -147 -5 -394 30 -524 9 -33 18 -67 20
-75 20 -85 101 -260 170 -366 149 -230 340 -398 590 -519 207 -100 393 -142
639 -144 55 -1 58 -2 44 -18 -8 -10 -49 -74 -92 -143 -43 -69 -116 -187 -164
-263 -361 -572 -513 -819 -509 -824 3 -3 164 -5 357 -5 321 0 353 1 371 18 10
9 19 20 19 25 0 4 64 108 141 231 78 122 149 235 158 250 9 15 71 114 137 220
67 106 244 389 394 628 150 239 296 471 325 515 107 162 177 325 215 501 129
596 -116 1192 -625 1524 -106 69 -298 157 -379 175 -11 2 -48 11 -81 19 -83
20 -117 25 -215 32 -47 3 -90 7 -97 9 -6 2 -13 2 -15 1z m184 -640 c116 -27
254 -92 328 -156 222 -188 325 -410 315 -680 -6 -174 -48 -304 -145 -444 -154
-222 -405 -356 -675 -358 -373 -4 -699 245 -806 616 -23 80 -34 266 -19 331 4
22 11 54 13 70 9 58 70 197 117 268 51 76 137 167 205 215 101 73 252 136 358
148 28 4 53 7 55 9 9 8 198 -6 254 -19z"/>
<path d="M1089 4236 c0 -23 -1 -120 -2 -216 l-2 -175 -215 -5 -215 -5 0 -262
0 -263 216 0 217 0 0 -217 0 -218 263 0 264 0 2 200 c1 110 2 208 2 218 1 16
18 17 216 17 l215 0 1 23 c1 37 1 388 0 450 l-1 57 -215 0 c-165 0 -215 3
-216 13 0 6 -2 104 -2 217 l-2 205 -262 1 -263 1 -1 -41z"/>
</g>
</svg>
